<?xml version="1.0" encoding="utf-8"?>
<!-- Generator: Adobe Illustrator 15.1.0, SVG Export Plug-In . SVG Version: 6.00 Build 0)  -->
<!DOCTYPE svg PUBLIC "-//W3C//DTD SVG 1.1//EN" "http://www.w3.org/Graphics/SVG/1.1/DTD/svg11.dtd">
<svg version="1.1" id="Layer_1" xmlns="http://www.w3.org/2000/svg" xmlns:xlink="http://www.w3.org/1999/xlink" x="0px" y="0px"
	 width="100px" height="69.26px" viewBox="0 0 100 69.26" enable-background="new 0 0 100 69.26" xml:space="preserve">
<g>
	<g>
		<path fill="#FFFFFF" d="M12.055,42.397c0,1.934,1.357,3.526,3.426,3.526c2,0,3.568-1.139,3.568-3.526v-7.619
			c0-3.639,0.929-5.004,3.997-5.004c3.141,0,4.21,1.137,4.21,5.119v7.731c0,7.847-8.207,9.156-11.775,9.156
			c-4.068,0-7.778-1.252-9.849-3.812c-1.57-1.934-1.784-2.899-1.784-10.179v-3.012c0-3.3,0.857-5.06,3.711-5.06
			c3.355,0,4.496,1.192,4.496,5.06V42.397z"/>
		<path fill="#FFFFFF" d="M39.818,34.951c1.639,2.5,3.21,3.923,3.995,3.923c0.571,0,1.214-0.797,1.214-2.334
			c0-0.511-0.143-3.353,0.499-4.433c0.571-1.024,1.499-1.536,2.855-1.536c2.712,0,3.499,1.138,3.499,5.231v11.373
			c0,2.672-1.287,4.037-3.855,4.037c-2.07,0-3.284-0.624-4.283-1.422c-0.428-0.343-2.213-2.843-3.354-4.32
			c-1.072-1.365-2.212-2.616-2.854-2.616c-0.93,0-1.357,0.854-1.357,2.443c0,3.412-0.358,3.754-0.643,4.436
			c-0.499,0.91-1.426,1.367-2.712,1.367c-3.281,0-3.498-1.88-3.498-5.176V34.438c0-2.73,1-4.038,3.927-4.038
			c1.855,0,2.854,0.398,3.854,1.193C37.677,32.05,38.818,33.415,39.818,34.951z"/>
		<path fill="#FFFFFF" d="M85.706,35.376c-1.786,1.536-2.641,2.159-2.641,3.296c0,0.514,0.146,0.911,0.428,1.309
			c5.927,7.903,6.282,8.133,6.282,9.325c0,1.535-1.571,2.275-3.355,2.275c-3.14,0-4.64-0.795-5.852-2.389
			c-3.425-4.32-3.781-4.721-4.711-4.721c-1.427,0-2.284,1.25-2.284,3.187c0,2.842-1.784,3.923-4.425,3.923
			c-3.853,0-4.426-2.334-4.426-5.062l0.073-12.623c0-2.786,1.499-4.208,4.422-4.208c2.715,0,3.642,0.911,4.214,2.73
			c0.286,1.023,0.571,1.762,1.427,1.762c1.429,0,3.565-2.786,4.995-3.468c1.498-0.739,2.711-1.081,3.855-1.081
			c1.425,0,5.138-0.171,5.138,1.819C88.847,32.477,88.561,32.874,85.706,35.376z"/>
		<g>
			<path fill="#FFFFFF" d="M94.883,29.648c0.541,0,1.069,0.14,1.587,0.417c0.515,0.28,0.919,0.678,1.206,1.198
				c0.29,0.52,0.433,1.063,0.433,1.625c0,0.559-0.142,1.092-0.426,1.608c-0.283,0.516-0.682,0.916-1.194,1.198
				c-0.51,0.284-1.046,0.427-1.605,0.427s-1.093-0.143-1.604-0.427c-0.514-0.282-0.912-0.682-1.197-1.198
				c-0.287-0.516-0.429-1.049-0.429-1.608c0-0.562,0.145-1.105,0.433-1.625c0.29-0.52,0.695-0.917,1.211-1.198
				C93.813,29.788,94.342,29.648,94.883,29.648z M94.883,30.181c-0.454,0-0.896,0.115-1.326,0.349
				c-0.43,0.235-0.765,0.567-1.008,1.001c-0.243,0.435-0.364,0.887-0.364,1.356c0,0.468,0.121,0.914,0.358,1.342
				c0.24,0.428,0.572,0.762,0.999,1c0.429,0.24,0.877,0.36,1.341,0.36c0.467,0,0.912-0.12,1.341-0.36
				c0.429-0.239,0.76-0.573,0.996-1c0.237-0.428,0.356-0.874,0.356-1.342c0-0.469-0.121-0.921-0.361-1.356
				c-0.242-0.434-0.578-0.766-1.01-1.001C95.775,30.296,95.334,30.181,94.883,30.181z M93.461,34.684v-3.502h1.194
				c0.408,0,0.703,0.032,0.886,0.097s0.329,0.177,0.436,0.338c0.111,0.162,0.164,0.333,0.164,0.513c0,0.257-0.09,0.479-0.268,0.67
				c-0.181,0.189-0.418,0.296-0.713,0.318c0.12,0.053,0.219,0.114,0.293,0.186c0.14,0.138,0.31,0.369,0.51,0.695l0.419,0.686H95.7
				l-0.308-0.552c-0.248-0.429-0.439-0.7-0.577-0.812c-0.103-0.083-0.251-0.125-0.447-0.122H94.04v1.485H93.461z M94.04,32.715h0.68
				c0.324,0,0.545-0.049,0.663-0.148c0.117-0.098,0.177-0.229,0.177-0.391c0-0.103-0.028-0.197-0.085-0.281
				c-0.057-0.083-0.138-0.144-0.238-0.184c-0.1-0.041-0.286-0.061-0.562-0.061H94.04V32.715z"/>
		</g>
		<path fill="#FFFFFF" d="M63.842,24.631c0,0-0.127,2.461-5.884,2.461c-5.758,0-5.81,1.405-5.81,1.405v-4.69
			c0,0-0.095-1.402,5.8-1.402c5.898,0,5.894-2.464,5.894-2.464V24.631z"/>
		<path fill="#FFFFFF" d="M63.75,11.423c0,0,0.242-4.728,11.299-4.728c11.054,0,11.157-2.698,11.157-2.698v9.007
			c0,0,0.181,2.692-11.142,2.692c-11.319,0-11.314,4.734-11.314,4.734V11.423z"/>
		<path fill="#FFFFFF" d="M57.728,29.758c-2.639,0-3.923,1.762-3.923,4.263l-0.072,12.625c0,2.843,0.572,5.06,4.427,5.06
			c2.924,0,4.423-1.419,4.423-4.205V35.16C62.582,30.953,61.298,29.758,57.728,29.758z M62.285,44.665c0,0-0.087,2.462-4.105,2.462
			c-4.016,0-4.055,1.406-4.055,1.406v-4.692c0,0-0.063-1.401,4.049-1.401c4.114,0,4.111-2.467,4.111-2.467V44.665z M62.285,37.936
			c0,0-0.087,2.461-4.105,2.461c-4.016,0-4.055,1.403-4.055,1.403V37.11c0,0-0.063-1.4,4.049-1.4c4.114,0,4.111-2.468,4.111-2.468
			V37.936z"/>
		<g>
			<path fill="#FFFFFF" d="M9.561,62.328c-1.166,0.891-2.366,1.336-3.594,1.336c-0.883,0-1.513-0.273-1.891-0.821
				c-0.38-0.548-0.424-1.251-0.135-2.109c0.287-0.854,0.764-1.671,1.43-2.438c0.667-0.773,1.407-1.39,2.222-1.851
				c0.813-0.464,1.539-0.694,2.173-0.694c0.531,0,0.912,0.159,1.142,0.476c0.229,0.316,0.257,0.729,0.09,1.232
				c-0.222,0.66-0.617,1.228-1.184,1.712c-0.568,0.481-1.123,0.722-1.667,0.722c-0.285,0-0.496-0.071-0.63-0.217
				c-0.135-0.146-0.164-0.332-0.087-0.562c0.067-0.197,0.207-0.379,0.421-0.548c0.044,0.216,0.17,0.323,0.375,0.323
				c0.293,0,0.627-0.179,1.001-0.544s0.632-0.765,0.779-1.193c0.102-0.306,0.111-0.544,0.03-0.724
				c-0.083-0.178-0.239-0.267-0.475-0.267c-0.34,0-0.776,0.21-1.304,0.633c-0.53,0.42-1.036,0.962-1.517,1.627
				c-0.481,0.66-0.822,1.289-1.022,1.888c-0.255,0.76-0.248,1.384,0.023,1.872c0.27,0.486,0.741,0.732,1.413,0.732
				c0.426,0,0.844-0.098,1.25-0.293c0.406-0.199,0.865-0.503,1.37-0.922L9.561,62.328z"/>
			<path fill="#FFFFFF" d="M15.438,62.321c-0.772,0.555-1.313,0.912-1.624,1.08c-0.308,0.168-0.579,0.254-0.81,0.254
				c-0.581,0-0.684-0.51-0.309-1.523c-0.542,0.519-1.009,0.9-1.402,1.149c-0.394,0.247-0.755,0.374-1.085,0.374
				c-0.324,0-0.547-0.152-0.671-0.453c-0.124-0.297-0.114-0.668,0.032-1.104c0.184-0.546,0.508-1.066,0.979-1.561
				c0.469-0.495,0.99-0.894,1.568-1.199c0.574-0.306,1.045-0.459,1.408-0.459c0.458,0,0.71,0.209,0.752,0.626l1.331-0.616h0.31
				l-1.024,1.601c-0.518,0.802-0.831,1.354-0.929,1.652c-0.108,0.313-0.046,0.469,0.177,0.469c0.142,0,0.325-0.075,0.548-0.226
				c0.224-0.149,0.541-0.381,0.958-0.689L15.438,62.321z M11.309,62.623c0.366,0,0.817-0.31,1.35-0.934
				c0.531-0.619,0.887-1.191,1.064-1.713c0.067-0.204,0.073-0.365,0.021-0.479c-0.052-0.114-0.156-0.171-0.31-0.171
				c-0.369,0-0.82,0.31-1.356,0.928c-0.536,0.619-0.892,1.188-1.066,1.708c-0.067,0.195-0.072,0.354-0.015,0.477
				C11.054,62.56,11.158,62.623,11.309,62.623z"/>
			<path fill="#FFFFFF" d="M19.086,62.321c-0.651,0.454-1.202,0.79-1.649,1.009c-0.451,0.216-0.845,0.325-1.188,0.325
				c-0.392,0-0.656-0.154-0.796-0.455c-0.138-0.302-0.12-0.708,0.048-1.218c0.258-0.762,0.733-1.681,1.427-2.75
				c0.692-1.069,1.43-2.057,2.209-2.958l1.572-0.514c0.048-0.012,0.083-0.021,0.105-0.021c0.105,0,0.168,0.078,0.185,0.233
				c0.014,0.153-0.022,0.361-0.109,0.625c-0.25,0.741-0.663,1.458-1.242,2.154c-0.579,0.696-1.368,1.438-2.366,2.228
				c-0.158,0.38-0.259,0.637-0.307,0.781c-0.107,0.314-0.134,0.567-0.078,0.754c0.055,0.183,0.179,0.276,0.374,0.276
				c0.199,0,0.434-0.071,0.706-0.213c0.27-0.141,0.71-0.437,1.319-0.883L19.086,62.321z M17.697,60.188
				c0.638-0.515,1.21-1.09,1.713-1.729c0.505-0.638,0.835-1.185,0.987-1.644c0.047-0.137,0.063-0.244,0.05-0.326
				c-0.012-0.082-0.051-0.122-0.113-0.122c-0.137,0-0.446,0.336-0.931,1.007C18.919,58.043,18.351,58.982,17.697,60.188z"/>
			<path fill="#FFFFFF" d="M21.794,62.321c-1.158,0.896-1.953,1.343-2.377,1.343c-0.234,0-0.394-0.118-0.474-0.356
				c-0.081-0.239-0.062-0.539,0.06-0.898c0.26-0.776,0.885-1.848,1.872-3.22l1.497-0.29h0.066l-1.124,1.709
				c-0.465,0.704-0.748,1.21-0.851,1.512c-0.04,0.119-0.046,0.219-0.019,0.292c0.028,0.074,0.083,0.111,0.163,0.111
				c0.144,0,0.305-0.052,0.485-0.154c0.179-0.105,0.485-0.33,0.913-0.674L21.794,62.321z M23.551,56.766
				c-0.292,0.874-0.764,1.309-1.414,1.309c-0.316,0-0.552-0.091-0.714-0.283c0.321-0.319,0.607-0.679,0.86-1.078
				c0.23,0.175,0.432,0.266,0.607,0.266C23.089,56.979,23.309,56.908,23.551,56.766z"/>
			<path fill="#FFFFFF" d="M27.672,62.321c-0.704,0.521-1.225,0.872-1.562,1.057c-0.34,0.183-0.615,0.277-0.829,0.277
				c-0.261,0-0.423-0.129-0.49-0.378c-0.069-0.249-0.023-0.619,0.134-1.103c-0.462,0.483-0.915,0.854-1.352,1.103
				c-0.44,0.249-0.802,0.378-1.086,0.378c-0.313,0-0.539-0.147-0.679-0.442c-0.142-0.29-0.146-0.635-0.012-1.027
				c0.271-0.811,0.823-1.564,1.654-2.259c0.828-0.69,1.585-1.038,2.272-1.038c0.188,0,0.332,0.027,0.419,0.081
				c0.092,0.056,0.177,0.147,0.263,0.279l1.884-3.264c0.694-0.149,1.15-0.225,1.375-0.225c0.073,0,0.101,0.029,0.08,0.087
				c-0.011,0.04-0.23,0.418-0.653,1.131c-1.694,2.853-2.638,4.573-2.835,5.163c-0.047,0.139-0.054,0.248-0.026,0.333
				c0.03,0.084,0.093,0.126,0.188,0.126c0.235,0,0.724-0.302,1.465-0.905L27.672,62.321z M23.595,62.61
				c0.361,0,0.798-0.302,1.313-0.906c0.513-0.604,0.86-1.169,1.037-1.696c0.072-0.215,0.082-0.386,0.026-0.513
				c-0.053-0.126-0.16-0.192-0.316-0.192c-0.34,0-0.779,0.314-1.311,0.949c-0.53,0.629-0.881,1.2-1.052,1.71
				c-0.068,0.199-0.074,0.357-0.019,0.476C23.327,62.553,23.436,62.61,23.595,62.61z"/>
			<path fill="#FFFFFF" d="M33.556,62.321c-0.772,0.555-1.313,0.912-1.623,1.08c-0.311,0.168-0.582,0.254-0.812,0.254
				c-0.581,0-0.681-0.51-0.309-1.523c-0.542,0.519-1.007,0.9-1.401,1.149c-0.394,0.247-0.756,0.374-1.085,0.374
				c-0.321,0-0.547-0.152-0.671-0.453c-0.125-0.297-0.114-0.668,0.034-1.104c0.183-0.546,0.508-1.066,0.979-1.561
				c0.468-0.495,0.991-0.894,1.567-1.199c0.575-0.306,1.045-0.459,1.409-0.459c0.458,0,0.708,0.209,0.752,0.626l1.331-0.616h0.31
				l-1.023,1.601c-0.518,0.802-0.828,1.354-0.929,1.652c-0.105,0.313-0.046,0.469,0.177,0.469c0.143,0,0.325-0.075,0.55-0.226
				c0.222-0.149,0.542-0.381,0.958-0.689L33.556,62.321z M29.428,62.623c0.366,0,0.815-0.31,1.349-0.934
				c0.535-0.619,0.887-1.191,1.064-1.713c0.068-0.204,0.077-0.365,0.023-0.479c-0.052-0.114-0.157-0.171-0.312-0.171
				c-0.367,0-0.818,0.31-1.354,0.928c-0.537,0.619-0.892,1.188-1.067,1.708c-0.066,0.195-0.073,0.354-0.015,0.477
				C29.172,62.56,29.274,62.623,29.428,62.623z"/>
			<path fill="#FFFFFF" d="M39.428,62.321c-0.704,0.521-1.225,0.872-1.563,1.057c-0.339,0.183-0.614,0.277-0.828,0.277
				c-0.26,0-0.423-0.129-0.491-0.378c-0.068-0.249-0.023-0.619,0.137-1.103c-0.464,0.483-0.915,0.854-1.353,1.103
				c-0.44,0.249-0.801,0.378-1.087,0.378c-0.312,0-0.54-0.147-0.679-0.442c-0.142-0.29-0.144-0.635-0.013-1.027
				c0.274-0.811,0.826-1.564,1.653-2.259c0.831-0.69,1.586-1.038,2.273-1.038c0.192,0,0.332,0.027,0.422,0.081
				c0.089,0.056,0.178,0.147,0.261,0.279l1.884-3.264c0.692-0.149,1.15-0.225,1.375-0.225c0.076,0,0.1,0.029,0.081,0.087
				c-0.013,0.04-0.232,0.418-0.655,1.131c-1.691,2.853-2.637,4.573-2.835,5.163c-0.047,0.139-0.054,0.248-0.024,0.333
				c0.032,0.084,0.093,0.126,0.189,0.126c0.233,0,0.722-0.302,1.463-0.905L39.428,62.321z M35.353,62.61
				c0.359,0,0.796-0.302,1.311-0.906c0.516-0.604,0.86-1.169,1.039-1.696c0.072-0.215,0.081-0.386,0.027-0.513
				c-0.057-0.126-0.163-0.192-0.32-0.192c-0.341,0-0.776,0.314-1.307,0.949c-0.534,0.629-0.885,1.2-1.056,1.71
				c-0.069,0.199-0.074,0.357-0.02,0.476C35.083,62.553,35.191,62.61,35.353,62.61z"/>
			<path fill="#FFFFFF" d="M48.119,62.321c-0.772,0.555-1.313,0.912-1.623,1.08c-0.311,0.168-0.581,0.254-0.811,0.254
				c-0.581,0-0.684-0.51-0.309-1.523c-0.542,0.519-1.01,0.9-1.404,1.149c-0.393,0.247-0.755,0.374-1.086,0.374
				c-0.32,0-0.546-0.152-0.669-0.453c-0.125-0.297-0.116-0.668,0.033-1.104c0.184-0.546,0.509-1.066,0.978-1.561
				c0.47-0.495,0.992-0.894,1.569-1.199c0.575-0.306,1.046-0.459,1.409-0.459c0.458,0,0.709,0.209,0.752,0.626l1.33-0.616h0.311
				l-1.023,1.601c-0.522,0.802-0.833,1.354-0.93,1.652c-0.105,0.313-0.046,0.469,0.178,0.469c0.143,0,0.325-0.075,0.549-0.226
				c0.222-0.149,0.542-0.381,0.958-0.689L48.119,62.321z M43.99,62.623c0.366,0,0.816-0.31,1.35-0.934
				c0.532-0.619,0.887-1.191,1.062-1.713c0.068-0.204,0.077-0.365,0.022-0.479c-0.052-0.114-0.156-0.171-0.31-0.171
				c-0.366,0-0.819,0.31-1.356,0.928c-0.535,0.619-0.89,1.188-1.064,1.708c-0.068,0.195-0.073,0.354-0.016,0.477
				C43.734,62.56,43.837,62.623,43.99,62.623z"/>
			<path fill="#FFFFFF" d="M54.112,62.321c-0.614,0.454-1.128,0.79-1.538,1.009c-0.409,0.216-0.768,0.325-1.072,0.325
				c-0.316,0-0.527-0.135-0.635-0.397c-0.108-0.264-0.09-0.61,0.055-1.04c0.127-0.377,0.39-0.877,0.786-1.497l0.511-0.829
				l-0.429,0.024l0.462-0.856l0.532-0.023l1.091-1.703l1.57-0.301l-1.207,1.902l0.791-0.046l-0.465,0.841l-0.876,0.063l-0.776,1.226
				c-0.271,0.423-0.449,0.761-0.532,1.013c-0.058,0.174-0.062,0.309-0.011,0.42c0.05,0.107,0.145,0.159,0.281,0.159
				c0.185,0,0.39-0.058,0.613-0.176c0.224-0.121,0.578-0.366,1.06-0.739L54.112,62.321z"/>
			<path fill="#FFFFFF" d="M59.985,62.321c-0.639,0.454-1.158,0.79-1.556,1.009c-0.397,0.216-0.729,0.325-0.99,0.325
				c-0.287,0-0.474-0.117-0.552-0.347c-0.081-0.228-0.053-0.54,0.078-0.932c-0.55,0.439-1.021,0.764-1.409,0.973
				c-0.39,0.21-0.738,0.314-1.043,0.314c-0.278,0-0.464-0.114-0.555-0.343c-0.093-0.231-0.073-0.543,0.062-0.933
				c0.254-0.759,0.865-1.824,1.844-3.199l1.566-0.291c-1.189,1.744-1.87,2.863-2.036,3.359c-0.116,0.348-0.044,0.521,0.221,0.521
				c0.191,0,0.478-0.151,0.864-0.459c0.386-0.307,0.651-0.576,0.8-0.806l1.503-2.324l1.598-0.301
				c-0.715,1.098-1.211,1.864-1.489,2.309c-0.277,0.444-0.446,0.752-0.505,0.933c-0.115,0.344-0.057,0.516,0.179,0.516
				c0.189,0,0.531-0.175,1.024-0.521l0.604-0.43L59.985,62.321z"/>
			<path fill="#FFFFFF" d="M70.441,62.328c-1.145,0.891-2.069,1.336-2.773,1.336c-0.389,0-0.652-0.138-0.789-0.408
				c-0.135-0.273-0.129-0.664,0.016-1.17c-0.624,0.537-1.15,0.935-1.582,1.191c-0.429,0.258-0.838,0.387-1.229,0.387
				c-0.498,0-0.827-0.214-0.985-0.641c-0.16-0.428-0.121-0.999,0.12-1.711c0.286-0.854,0.78-1.729,1.48-2.635
				c0.698-0.904,1.525-1.617,2.481-2.142c0.954-0.523,1.983-0.786,3.093-0.786c0.829,0,1.541,0.11,2.14,0.333l-0.122,0.361
				c-0.761,0.635-1.515,1.519-2.269,2.657c-0.749,1.139-1.224,2.006-1.426,2.603c-0.099,0.291-0.113,0.518-0.048,0.677
				c0.064,0.16,0.203,0.242,0.416,0.242c0.382,0,0.943-0.31,1.687-0.925L70.441,62.328z M70.816,56.444
				c-0.276-0.182-0.609-0.274-0.999-0.274c-0.612,0-1.249,0.255-1.913,0.763c-0.662,0.507-1.274,1.18-1.84,2.018
				c-0.565,0.835-0.953,1.563-1.161,2.177c-0.139,0.409-0.166,0.746-0.096,1.003c0.073,0.255,0.235,0.385,0.484,0.385
				c0.434,0,1.062-0.391,1.887-1.174C68.1,59.288,69.311,57.654,70.816,56.444z"/>
			<path fill="#FFFFFF" d="M74.081,62.321c-0.655,0.454-1.204,0.79-1.651,1.009c-0.451,0.216-0.848,0.325-1.188,0.325
				c-0.392,0-0.656-0.154-0.798-0.455c-0.138-0.302-0.121-0.708,0.049-1.218c0.258-0.762,0.733-1.681,1.426-2.75
				c0.696-1.069,1.432-2.057,2.211-2.958l1.572-0.514c0.049-0.012,0.083-0.021,0.105-0.021c0.104,0,0.169,0.078,0.183,0.233
				c0.016,0.153-0.021,0.361-0.107,0.625c-0.251,0.741-0.662,1.458-1.242,2.154c-0.576,0.696-1.366,1.438-2.366,2.228
				c-0.158,0.38-0.259,0.637-0.307,0.781c-0.107,0.314-0.134,0.567-0.077,0.754c0.055,0.183,0.18,0.276,0.375,0.276
				c0.197,0,0.434-0.071,0.703-0.213c0.272-0.141,0.714-0.437,1.323-0.883L74.081,62.321z M72.689,60.188
				c0.64-0.515,1.211-1.09,1.716-1.729c0.503-0.638,0.832-1.185,0.986-1.644c0.044-0.137,0.062-0.244,0.05-0.326
				c-0.015-0.082-0.051-0.122-0.115-0.122c-0.136,0-0.445,0.336-0.928,1.007C73.913,58.043,73.343,58.982,72.689,60.188z"/>
			<path fill="#FFFFFF" d="M78.209,62.321c-0.624,0.457-1.17,0.797-1.633,1.011c-0.46,0.214-0.907,0.323-1.332,0.323
				c-0.476,0-0.819-0.156-1.025-0.464c-0.206-0.306-0.23-0.696-0.071-1.171c0.259-0.773,0.787-1.488,1.579-2.147
				c0.789-0.656,1.516-0.984,2.182-0.984c0.327,0,0.562,0.09,0.706,0.27c0.147,0.181,0.17,0.413,0.074,0.703
				c-0.033,0.101-0.081,0.177-0.135,0.229c-0.056,0.052-0.144,0.1-0.269,0.152l-0.74,0.299c-0.09,0.038-0.151,0.056-0.189,0.056
				c-0.051,0-0.063-0.035-0.04-0.107c0.011-0.03,0.053-0.126,0.129-0.288c0.077-0.163,0.12-0.261,0.133-0.297
				c0.055-0.16,0.065-0.291,0.029-0.388c-0.035-0.101-0.107-0.147-0.225-0.147c-0.267,0-0.575,0.196-0.932,0.592
				c-0.353,0.391-0.617,0.838-0.782,1.341c-0.148,0.434-0.158,0.779-0.036,1.037c0.12,0.257,0.357,0.386,0.706,0.386
				c0.297,0,0.607-0.084,0.924-0.253c0.32-0.171,0.705-0.428,1.157-0.776L78.209,62.321z"/>
			<path fill="#FFFFFF" d="M84.085,62.321c-0.773,0.555-1.316,0.912-1.623,1.08c-0.309,0.168-0.58,0.254-0.811,0.254
				c-0.579,0-0.683-0.51-0.309-1.523c-0.54,0.519-1.009,0.9-1.401,1.149c-0.395,0.247-0.756,0.374-1.085,0.374
				c-0.321,0-0.548-0.152-0.675-0.453c-0.122-0.297-0.112-0.668,0.035-1.104c0.182-0.546,0.51-1.066,0.978-1.561
				c0.471-0.495,0.992-0.894,1.569-1.199c0.575-0.306,1.045-0.459,1.408-0.459c0.458,0,0.709,0.209,0.751,0.626l1.332-0.616h0.31
				l-1.023,1.601c-0.52,0.802-0.83,1.354-0.93,1.652c-0.105,0.313-0.047,0.469,0.178,0.469c0.143,0,0.327-0.075,0.548-0.226
				c0.224-0.149,0.546-0.381,0.961-0.689L84.085,62.321z M79.957,62.623c0.367,0,0.816-0.31,1.348-0.934
				c0.534-0.619,0.889-1.191,1.067-1.713c0.067-0.204,0.075-0.365,0.02-0.479c-0.052-0.114-0.155-0.171-0.31-0.171
				c-0.366,0-0.818,0.31-1.355,0.928c-0.535,0.619-0.892,1.188-1.067,1.708c-0.064,0.195-0.07,0.354-0.013,0.477
				C79.701,62.56,79.806,62.623,79.957,62.623z"/>
			<path fill="#FFFFFF" d="M89.493,62.321c-1.144,0.888-2.021,1.334-2.624,1.334c-0.246,0-0.415-0.088-0.509-0.258
				c-0.095-0.171-0.093-0.4,0.006-0.688c0.133-0.391,0.492-0.983,1.082-1.785c0.317-0.431,0.497-0.701,0.535-0.818
				c0.04-0.116,0.014-0.175-0.077-0.175c-0.055,0-0.128,0.025-0.231,0.076c-0.093,0.051-0.207,0.123-0.341,0.213
				c-0.118,0.083-0.257,0.183-0.411,0.304c-0.134,0.104-0.277,0.219-0.436,0.35l-0.427,0.356c-0.192,0.163-0.334,0.336-0.429,0.518
				c-0.159,0.309-0.291,0.592-0.395,0.853c-0.078,0.193-0.171,0.452-0.278,0.78l-1.313,0.283c0.124-0.49,0.226-0.856,0.307-1.096
				c0.197-0.588,0.454-1.142,0.767-1.668c0.314-0.521,0.734-1.112,1.259-1.767l1.428-0.255c-0.535,0.751-0.92,1.346-1.154,1.78
				c0.826-0.669,1.457-1.128,1.897-1.387c0.442-0.255,0.799-0.384,1.073-0.384c0.186,0,0.316,0.071,0.396,0.21
				c0.077,0.141,0.081,0.315,0.009,0.528c-0.117,0.346-0.466,0.922-1.051,1.722c-0.401,0.55-0.631,0.907-0.688,1.07
				c-0.069,0.22-0.02,0.329,0.161,0.329c0.27,0,0.821-0.353,1.656-1.053L89.493,62.321z"/>
			<path fill="#FFFFFF" d="M93.607,62.321c-0.623,0.457-1.17,0.797-1.63,1.011c-0.463,0.214-0.907,0.323-1.332,0.323
				c-0.48,0-0.821-0.156-1.026-0.464c-0.207-0.306-0.231-0.696-0.074-1.171c0.262-0.773,0.789-1.488,1.579-2.147
				c0.792-0.656,1.52-0.984,2.184-0.984c0.325,0,0.564,0.09,0.706,0.27c0.145,0.181,0.17,0.413,0.074,0.703
				c-0.034,0.101-0.08,0.177-0.135,0.229c-0.057,0.052-0.146,0.1-0.268,0.152l-0.74,0.299c-0.09,0.038-0.153,0.056-0.189,0.056
				c-0.051,0-0.066-0.035-0.04-0.107c0.01-0.03,0.053-0.126,0.131-0.288c0.075-0.163,0.119-0.261,0.13-0.297
				c0.055-0.16,0.063-0.291,0.029-0.388c-0.035-0.101-0.108-0.147-0.222-0.147c-0.269,0-0.579,0.196-0.934,0.592
				c-0.354,0.391-0.614,0.838-0.785,1.341c-0.145,0.434-0.156,0.779-0.033,1.037c0.121,0.257,0.354,0.386,0.704,0.386
				c0.299,0,0.607-0.084,0.927-0.253c0.318-0.171,0.704-0.428,1.155-0.776L93.607,62.321z"/>
			<path fill="#FFFFFF" d="M97.732,62.321c-0.618,0.454-1.146,0.79-1.592,1.009c-0.442,0.216-0.888,0.325-1.336,0.325
				c-0.499,0-0.849-0.159-1.049-0.476c-0.199-0.315-0.214-0.733-0.041-1.251c0.263-0.771,0.766-1.47,1.516-2.092
				c0.748-0.625,1.451-0.938,2.109-0.938c0.341,0,0.586,0.088,0.73,0.263c0.147,0.176,0.173,0.403,0.076,0.687
				c-0.252,0.755-1.264,1.364-3.035,1.834c-0.095,0.712,0.172,1.065,0.791,1.065c0.241,0,0.495-0.064,0.76-0.195
				c0.263-0.131,0.692-0.415,1.283-0.857L97.732,62.321z M95.19,61.313c1.027-0.263,1.66-0.748,1.898-1.451
				c0.116-0.353,0.046-0.523-0.211-0.523c-0.242,0-0.535,0.179-0.877,0.546C95.657,60.252,95.388,60.727,95.19,61.313z"/>
		</g>
	</g>
</g>
<g>
	<rect x="111.167" fill="#E33834" width="100" height="69.26"/>
	<g>
		<path fill="#FFFFFF" d="M127.893,41.369c0,1.702,1.194,3.104,3.016,3.104c1.759,0,3.14-1.002,3.14-3.104v-6.704
			c0-3.202,0.817-4.404,3.517-4.404c2.765,0,3.705,1,3.705,4.505v6.803c0,6.905-7.222,8.058-10.361,8.058
			c-3.58,0-6.846-1.102-8.668-3.354c-1.381-1.702-1.57-2.552-1.57-8.958v-2.65c0-2.904,0.755-4.453,3.267-4.453
			c2.952,0,3.956,1.049,3.956,4.453V41.369z"/>
		<path fill="#FFFFFF" d="M152.324,34.816c1.442,2.2,2.825,3.452,3.516,3.452c0.503,0,1.068-0.701,1.068-2.054
			c0-0.449-0.125-2.951,0.439-3.901c0.502-0.901,1.318-1.352,2.512-1.352c2.388,0,3.079,1.001,3.079,4.604v10.008
			c0,2.352-1.132,3.553-3.392,3.553c-1.822,0-2.891-0.549-3.77-1.251c-0.377-0.302-1.947-2.502-2.951-3.802
			c-0.943-1.201-1.947-2.303-2.512-2.303c-0.818,0-1.194,0.751-1.194,2.15c0,3.003-0.315,3.304-0.565,3.903
			c-0.439,0.801-1.256,1.203-2.387,1.203c-2.888,0-3.078-1.654-3.078-4.555V34.366c0-2.402,0.88-3.553,3.456-3.553
			c1.633,0,2.511,0.35,3.392,1.05C150.439,32.264,151.445,33.465,152.324,34.816z"/>
		<path fill="#FFFFFF" d="M192.706,35.191c-1.572,1.351-2.324,1.9-2.324,2.901c0,0.452,0.128,0.802,0.377,1.151
			c5.215,6.955,5.528,7.157,5.528,8.206c0,1.352-1.383,2.003-2.953,2.003c-2.763,0-4.083-0.7-5.149-2.103
			c-3.014-3.802-3.327-4.154-4.146-4.154c-1.256,0-2.01,1.101-2.01,2.805c0,2.501-1.57,3.452-3.895,3.452
			c-3.39,0-3.895-2.054-3.895-4.454l0.064-11.108c0-2.452,1.319-3.703,3.892-3.703c2.389,0,3.204,0.802,3.708,2.403
			c0.252,0.9,0.503,1.551,1.256,1.551c1.257,0,3.138-2.452,4.396-3.052c1.318-0.65,2.386-0.951,3.393-0.951
			c1.254,0,4.521-0.15,4.521,1.601C195.47,32.639,195.218,32.989,192.706,35.191z"/>
		<g>
			<path fill="#FFFFFF" d="M200.781,30.15c0.477,0,0.941,0.123,1.396,0.367c0.453,0.247,0.809,0.596,1.062,1.054
				c0.255,0.458,0.381,0.935,0.381,1.43c0,0.492-0.125,0.961-0.375,1.415c-0.249,0.454-0.6,0.806-1.051,1.054
				c-0.449,0.25-0.921,0.376-1.413,0.376s-0.962-0.126-1.411-0.376c-0.452-0.248-0.803-0.6-1.054-1.054
				c-0.252-0.454-0.377-0.923-0.377-1.415c0-0.495,0.127-0.972,0.381-1.43c0.255-0.458,0.611-0.807,1.065-1.054
				C199.84,30.273,200.306,30.15,200.781,30.15z M200.781,30.619c-0.399,0-0.789,0.102-1.167,0.307
				c-0.378,0.207-0.673,0.5-0.887,0.881c-0.214,0.383-0.32,0.781-0.32,1.193c0,0.412,0.106,0.804,0.315,1.181
				c0.211,0.376,0.503,0.67,0.879,0.88c0.377,0.211,0.771,0.317,1.18,0.317c0.411,0,0.803-0.105,1.18-0.317
				c0.378-0.21,0.669-0.504,0.877-0.88c0.209-0.376,0.313-0.769,0.313-1.181c0-0.413-0.106-0.811-0.317-1.193
				c-0.214-0.381-0.509-0.674-0.889-0.881C201.566,30.721,201.179,30.619,200.781,30.619z M199.53,34.582V31.5h1.051
				c0.359,0,0.619,0.028,0.779,0.085c0.161,0.057,0.29,0.156,0.384,0.297c0.098,0.142,0.145,0.293,0.145,0.452
				c0,0.226-0.079,0.421-0.236,0.589c-0.158,0.167-0.367,0.261-0.627,0.28c0.105,0.047,0.192,0.101,0.258,0.164
				c0.123,0.121,0.272,0.325,0.448,0.611l0.369,0.603h-0.6l-0.271-0.485c-0.218-0.378-0.387-0.616-0.508-0.714
				c-0.09-0.073-0.221-0.109-0.394-0.107h-0.288v1.307H199.53z M200.04,32.849h0.598c0.285,0,0.479-0.043,0.584-0.13
				c0.103-0.086,0.155-0.201,0.155-0.344c0-0.091-0.025-0.174-0.075-0.248c-0.05-0.073-0.121-0.126-0.209-0.162
				s-0.252-0.054-0.494-0.054h-0.559V32.849z"/>
		</g>
		<path fill="#FFFFFF" d="M173.465,25.735c0,0-0.111,2.166-5.178,2.166s-5.112,1.236-5.112,1.236V25.01c0,0-0.083-1.234,5.104-1.234
			c5.19,0,5.186-2.168,5.186-2.168V25.735z"/>
		<path fill="#FFFFFF" d="M173.385,14.112c0,0,0.213-4.16,9.942-4.16c9.728,0,9.818-2.374,9.818-2.374v7.926
			c0,0,0.159,2.37-9.805,2.37c-9.961,0-9.956,4.166-9.956,4.166V14.112z"/>
		<path fill="#FFFFFF" d="M168.085,30.247c-2.322,0-3.452,1.551-3.452,3.751l-0.063,11.109c0,2.502,0.503,4.453,3.896,4.453
			c2.572,0,3.892-1.249,3.892-3.701V35C172.356,31.298,171.227,30.247,168.085,30.247z M172.096,43.365c0,0-0.077,2.166-3.613,2.166
			c-3.533,0-3.568,1.237-3.568,1.237V42.64c0,0-0.056-1.233,3.563-1.233c3.62,0,3.618-2.171,3.618-2.171V43.365z M172.096,37.443
			c0,0-0.077,2.165-3.613,2.165c-3.533,0-3.568,1.235-3.568,1.235v-4.127c0,0-0.056-1.232,3.563-1.232
			c3.62,0,3.618-2.172,3.618-2.172V37.443z"/>
		<g>
			<path fill="#FFFFFF" d="M125.698,58.908c-1.026,0.784-2.082,1.176-3.163,1.176c-0.777,0-1.331-0.24-1.664-0.723
				c-0.334-0.482-0.373-1.101-0.119-1.856c0.253-0.751,0.673-1.47,1.259-2.146c0.587-0.681,1.239-1.223,1.955-1.629
				c0.716-0.408,1.354-0.61,1.913-0.61c0.467,0,0.802,0.14,1.004,0.418c0.201,0.278,0.227,0.642,0.08,1.085
				c-0.196,0.581-0.544,1.08-1.043,1.506c-0.5,0.424-0.988,0.636-1.467,0.636c-0.251,0-0.436-0.063-0.555-0.191
				c-0.118-0.128-0.144-0.292-0.076-0.494c0.059-0.173,0.183-0.333,0.371-0.481c0.038,0.189,0.148,0.284,0.33,0.284
				c0.258,0,0.553-0.157,0.881-0.479c0.33-0.321,0.557-0.673,0.686-1.051c0.09-0.269,0.098-0.479,0.026-0.637
				c-0.073-0.156-0.21-0.234-0.418-0.234c-0.3,0-0.683,0.185-1.147,0.557c-0.467,0.37-0.911,0.847-1.334,1.432
				c-0.424,0.581-0.724,1.135-0.9,1.661c-0.225,0.669-0.219,1.218,0.02,1.647c0.238,0.429,0.652,0.645,1.244,0.645
				c0.375,0,0.742-0.086,1.1-0.258c0.357-0.175,0.762-0.442,1.205-0.811L125.698,58.908z"/>
			<path fill="#FFFFFF" d="M130.869,58.902c-0.68,0.488-1.156,0.803-1.429,0.95c-0.271,0.148-0.51,0.224-0.712,0.224
				c-0.512,0-0.603-0.448-0.272-1.341c-0.478,0.457-0.888,0.793-1.233,1.012c-0.348,0.218-0.665,0.329-0.955,0.329
				c-0.285,0-0.481-0.134-0.591-0.398c-0.109-0.262-0.101-0.588,0.028-0.972c0.162-0.48,0.447-0.938,0.861-1.374
				c0.412-0.436,0.871-0.786,1.381-1.055c0.505-0.27,0.919-0.404,1.238-0.404c0.402,0,0.625,0.184,0.662,0.551l1.172-0.542h0.272
				l-0.901,1.408c-0.455,0.706-0.73,1.191-0.816,1.454c-0.096,0.275-0.041,0.413,0.156,0.413c0.125,0,0.285-0.066,0.481-0.199
				c0.197-0.131,0.476-0.335,0.843-0.606L130.869,58.902z M127.236,59.168c0.322,0,0.719-0.272,1.188-0.821
				c0.468-0.545,0.781-1.049,0.938-1.508c0.059-0.18,0.064-0.321,0.019-0.422s-0.138-0.15-0.272-0.15
				c-0.324,0-0.722,0.272-1.193,0.816c-0.472,0.545-0.785,1.045-0.938,1.503c-0.06,0.172-0.063,0.312-0.013,0.42
				C127.012,59.112,127.104,59.168,127.236,59.168z"/>
			<path fill="#FFFFFF" d="M134.08,58.902c-0.572,0.399-1.058,0.695-1.451,0.888c-0.396,0.19-0.743,0.286-1.045,0.286
				c-0.346,0-0.578-0.136-0.701-0.4c-0.121-0.266-0.105-0.623,0.043-1.071c0.227-0.671,0.645-1.479,1.255-2.42
				c0.609-0.941,1.259-1.811,1.944-2.604l1.384-0.452c0.042-0.01,0.073-0.019,0.093-0.019c0.092,0,0.147,0.068,0.162,0.205
				c0.013,0.135-0.02,0.318-0.096,0.55c-0.221,0.652-0.584,1.283-1.093,1.896c-0.509,0.612-1.204,1.265-2.083,1.96
				c-0.139,0.334-0.227,0.561-0.27,0.688c-0.094,0.276-0.117,0.499-0.068,0.663c0.049,0.161,0.158,0.243,0.33,0.243
				c0.175,0,0.381-0.063,0.621-0.187c0.237-0.124,0.625-0.385,1.16-0.777L134.08,58.902z M132.857,57.025
				c0.562-0.453,1.064-0.959,1.508-1.521c0.444-0.562,0.735-1.043,0.869-1.446c0.041-0.121,0.056-0.215,0.044-0.287
				c-0.011-0.072-0.045-0.107-0.1-0.107c-0.12,0-0.393,0.295-0.819,0.886C133.934,55.138,133.434,55.964,132.857,57.025z"/>
			<path fill="#FFFFFF" d="M136.463,58.902c-1.019,0.789-1.718,1.182-2.092,1.182c-0.205,0-0.346-0.104-0.416-0.313
				c-0.072-0.211-0.055-0.475,0.053-0.791c0.229-0.683,0.778-1.626,1.646-2.833l1.317-0.255h0.059l-0.989,1.504
				c-0.409,0.619-0.658,1.064-0.748,1.33c-0.035,0.104-0.041,0.192-0.016,0.257c0.024,0.065,0.072,0.098,0.143,0.098
				c0.126,0,0.268-0.045,0.427-0.136c0.157-0.093,0.427-0.29,0.804-0.593L136.463,58.902z M138.01,54.014
				c-0.258,0.769-0.673,1.151-1.244,1.151c-0.279,0-0.486-0.08-0.629-0.249c0.282-0.281,0.534-0.598,0.757-0.949
				c0.203,0.154,0.38,0.234,0.534,0.234C137.604,54.201,137.796,54.139,138.01,54.014z"/>
			<path fill="#FFFFFF" d="M141.637,58.902c-0.619,0.459-1.078,0.768-1.375,0.93c-0.3,0.161-0.541,0.244-0.729,0.244
				c-0.229,0-0.372-0.113-0.431-0.332c-0.062-0.22-0.021-0.545,0.117-0.971c-0.406,0.426-0.805,0.751-1.189,0.971
				c-0.388,0.219-0.706,0.332-0.956,0.332c-0.274,0-0.474-0.13-0.597-0.389c-0.125-0.256-0.129-0.559-0.011-0.904
				c0.239-0.714,0.724-1.377,1.455-1.988c0.729-0.607,1.396-0.913,2-0.913c0.165,0,0.292,0.024,0.368,0.071
				c0.081,0.049,0.156,0.13,0.231,0.246l1.658-2.872c0.61-0.132,1.013-0.198,1.21-0.198c0.064,0,0.089,0.026,0.07,0.077
				c-0.01,0.035-0.203,0.367-0.574,0.995c-1.49,2.51-2.322,4.024-2.494,4.543c-0.042,0.122-0.049,0.219-0.023,0.293
				c0.027,0.074,0.082,0.111,0.166,0.111c0.207,0,0.637-0.266,1.289-0.797L141.637,58.902z M138.049,59.157
				c0.317,0,0.702-0.266,1.155-0.798c0.452-0.532,0.757-1.028,0.912-1.493c0.063-0.188,0.072-0.339,0.023-0.451
				c-0.046-0.11-0.141-0.169-0.278-0.169c-0.3,0-0.686,0.276-1.154,0.835c-0.467,0.554-0.775,1.057-0.926,1.505
				c-0.06,0.176-0.065,0.314-0.016,0.419C137.813,59.106,137.908,59.157,138.049,59.157z"/>
			<path fill="#FFFFFF" d="M146.814,58.902c-0.68,0.488-1.156,0.803-1.429,0.95c-0.272,0.148-0.512,0.224-0.714,0.224
				c-0.512,0-0.6-0.448-0.272-1.341c-0.477,0.457-0.886,0.793-1.233,1.012c-0.346,0.218-0.665,0.329-0.955,0.329
				c-0.283,0-0.481-0.134-0.591-0.398c-0.109-0.262-0.101-0.588,0.03-0.972c0.16-0.48,0.447-0.938,0.861-1.374
				c0.412-0.436,0.871-0.786,1.379-1.055c0.506-0.27,0.92-0.404,1.24-0.404c0.402,0,0.623,0.184,0.661,0.551l1.171-0.542h0.272
				l-0.9,1.408c-0.456,0.706-0.729,1.191-0.817,1.454c-0.094,0.275-0.041,0.413,0.155,0.413c0.126,0,0.286-0.066,0.483-0.199
				c0.195-0.131,0.477-0.335,0.844-0.606L146.814,58.902z M143.182,59.168c0.321,0,0.717-0.272,1.187-0.821
				c0.47-0.545,0.78-1.049,0.937-1.508c0.06-0.18,0.067-0.321,0.02-0.422c-0.046-0.101-0.139-0.15-0.273-0.15
				c-0.323,0-0.721,0.272-1.191,0.816c-0.473,0.545-0.785,1.045-0.939,1.503c-0.059,0.172-0.064,0.312-0.014,0.42
				C142.955,59.112,143.046,59.168,143.182,59.168z"/>
			<path fill="#FFFFFF" d="M151.981,58.902c-0.62,0.459-1.078,0.768-1.376,0.93c-0.299,0.161-0.54,0.244-0.729,0.244
				c-0.229,0-0.372-0.113-0.432-0.332c-0.061-0.22-0.021-0.545,0.12-0.971c-0.409,0.426-0.806,0.751-1.19,0.971
				c-0.387,0.219-0.705,0.332-0.957,0.332c-0.274,0-0.475-0.13-0.598-0.389c-0.124-0.256-0.126-0.559-0.011-0.904
				c0.241-0.714,0.727-1.377,1.455-1.988c0.731-0.607,1.396-0.913,2-0.913c0.169,0,0.292,0.024,0.372,0.071
				c0.078,0.049,0.156,0.13,0.229,0.246l1.658-2.872c0.609-0.132,1.013-0.198,1.21-0.198c0.067,0,0.089,0.026,0.071,0.077
				c-0.012,0.035-0.204,0.367-0.576,0.995c-1.488,2.51-2.32,4.024-2.494,4.543c-0.042,0.122-0.048,0.219-0.021,0.293
				c0.027,0.074,0.082,0.111,0.166,0.111c0.206,0,0.636-0.266,1.288-0.797L151.981,58.902z M148.395,59.157
				c0.316,0,0.701-0.266,1.154-0.798s0.756-1.028,0.914-1.493c0.063-0.188,0.07-0.339,0.023-0.451
				c-0.049-0.11-0.143-0.169-0.281-0.169c-0.3,0-0.684,0.276-1.149,0.835c-0.47,0.554-0.779,1.057-0.929,1.505
				c-0.062,0.176-0.065,0.314-0.018,0.419C148.157,59.106,148.252,59.157,148.395,59.157z"/>
			<path fill="#FFFFFF" d="M159.629,58.902c-0.68,0.488-1.155,0.803-1.428,0.95c-0.273,0.148-0.512,0.224-0.714,0.224
				c-0.511,0-0.602-0.448-0.271-1.341c-0.477,0.457-0.89,0.793-1.235,1.012c-0.346,0.218-0.664,0.329-0.955,0.329
				c-0.283,0-0.48-0.134-0.59-0.398c-0.11-0.262-0.102-0.588,0.029-0.972c0.162-0.48,0.447-0.938,0.859-1.374
				c0.414-0.436,0.873-0.786,1.381-1.055c0.507-0.27,0.921-0.404,1.24-0.404c0.403,0,0.625,0.184,0.662,0.551l1.17-0.542h0.273
				l-0.9,1.408c-0.459,0.706-0.732,1.191-0.818,1.454c-0.092,0.275-0.041,0.413,0.156,0.413c0.125,0,0.286-0.066,0.483-0.199
				c0.195-0.131,0.477-0.335,0.843-0.606L159.629,58.902z M155.996,59.168c0.322,0,0.719-0.272,1.188-0.821
				c0.469-0.545,0.781-1.049,0.936-1.508c0.06-0.18,0.066-0.321,0.02-0.422s-0.138-0.15-0.273-0.15
				c-0.322,0-0.721,0.272-1.193,0.816c-0.471,0.545-0.783,1.045-0.936,1.503c-0.061,0.172-0.064,0.312-0.015,0.42
				C155.771,59.112,155.861,59.168,155.996,59.168z"/>
			<path fill="#FFFFFF" d="M164.903,58.902c-0.541,0.399-0.992,0.695-1.354,0.888c-0.36,0.19-0.676,0.286-0.943,0.286
				c-0.278,0-0.464-0.118-0.56-0.35c-0.095-0.232-0.078-0.537,0.049-0.915c0.112-0.332,0.343-0.771,0.691-1.317l0.45-0.729
				l-0.378,0.021l0.407-0.754l0.468-0.021l0.96-1.499l1.382-0.265l-1.063,1.674l0.696-0.04l-0.409,0.74l-0.771,0.056l-0.684,1.078
				c-0.238,0.372-0.395,0.67-0.468,0.892c-0.051,0.152-0.055,0.271-0.01,0.369c0.044,0.095,0.127,0.141,0.248,0.141
				c0.162,0,0.343-0.051,0.539-0.155c0.197-0.106,0.509-0.322,0.933-0.65L164.903,58.902z"/>
			<path fill="#FFFFFF" d="M170.071,58.902c-0.562,0.399-1.019,0.695-1.369,0.888c-0.35,0.19-0.641,0.286-0.871,0.286
				c-0.253,0-0.417-0.103-0.485-0.305c-0.071-0.2-0.047-0.476,0.068-0.82c-0.483,0.387-0.898,0.672-1.24,0.856
				c-0.343,0.185-0.649,0.276-0.917,0.276c-0.245,0-0.408-0.101-0.488-0.302c-0.082-0.203-0.064-0.478,0.054-0.82
				c0.224-0.668,0.762-1.605,1.623-2.815l1.378-0.256c-1.047,1.534-1.646,2.52-1.792,2.956c-0.102,0.306-0.038,0.458,0.194,0.458
				c0.169,0,0.421-0.133,0.761-0.404c0.34-0.27,0.573-0.507,0.704-0.709l1.322-2.045l1.406-0.265
				c-0.629,0.966-1.065,1.641-1.311,2.031c-0.244,0.392-0.393,0.662-0.444,0.821c-0.102,0.302-0.05,0.453,0.157,0.453
				c0.167,0,0.468-0.153,0.901-0.458l0.532-0.378L170.071,58.902z"/>
			<path fill="#FFFFFF" d="M179.272,58.908c-1.007,0.784-1.82,1.176-2.44,1.176c-0.342,0-0.574-0.121-0.694-0.359
				c-0.118-0.24-0.113-0.584,0.014-1.029c-0.549,0.473-1.012,0.822-1.392,1.049c-0.378,0.227-0.737,0.34-1.081,0.34
				c-0.438,0-0.729-0.188-0.867-0.563c-0.142-0.377-0.106-0.879,0.105-1.506c0.252-0.751,0.687-1.521,1.303-2.318
				c0.614-0.796,1.343-1.423,2.184-1.885c0.84-0.461,1.745-0.691,2.722-0.691c0.729,0,1.356,0.097,1.883,0.293L180.9,53.73
				c-0.669,0.559-1.333,1.337-1.996,2.339c-0.659,1.002-1.077,1.765-1.255,2.29c-0.087,0.256-0.1,0.455-0.042,0.596
				c0.057,0.141,0.179,0.213,0.366,0.213c0.336,0,0.83-0.272,1.484-0.813L179.272,58.908z M179.603,53.73
				c-0.243-0.159-0.536-0.241-0.879-0.241c-0.539,0-1.099,0.225-1.684,0.671c-0.582,0.446-1.121,1.038-1.619,1.775
				c-0.497,0.735-0.839,1.375-1.021,1.916c-0.122,0.36-0.146,0.656-0.084,0.883c0.064,0.224,0.207,0.338,0.426,0.338
				c0.382,0,0.935-0.344,1.66-1.032C177.212,56.233,178.277,54.796,179.603,53.73z"/>
			<path fill="#FFFFFF" d="M182.476,58.902c-0.576,0.399-1.06,0.695-1.453,0.888c-0.396,0.19-0.746,0.286-1.045,0.286
				c-0.345,0-0.577-0.136-0.702-0.4c-0.121-0.266-0.106-0.623,0.043-1.071c0.227-0.671,0.646-1.479,1.255-2.42
				c0.612-0.941,1.26-1.811,1.945-2.604l1.384-0.452c0.043-0.01,0.073-0.019,0.093-0.019c0.092,0,0.148,0.068,0.161,0.205
				c0.014,0.135-0.019,0.318-0.095,0.55c-0.221,0.652-0.583,1.283-1.094,1.896c-0.507,0.612-1.202,1.265-2.082,1.96
				c-0.139,0.334-0.228,0.561-0.27,0.688c-0.095,0.276-0.118,0.499-0.068,0.663c0.049,0.161,0.158,0.243,0.33,0.243
				c0.174,0,0.382-0.063,0.619-0.187c0.239-0.124,0.628-0.385,1.164-0.777L182.476,58.902z M181.251,57.025
				c0.563-0.453,1.065-0.959,1.51-1.521c0.443-0.562,0.732-1.043,0.868-1.446c0.039-0.121,0.055-0.215,0.044-0.287
				c-0.013-0.072-0.045-0.107-0.102-0.107c-0.119,0-0.392,0.295-0.816,0.886C182.328,55.138,181.826,55.964,181.251,57.025z"/>
			<path fill="#FFFFFF" d="M186.108,58.902c-0.549,0.402-1.029,0.701-1.437,0.89c-0.405,0.188-0.799,0.284-1.173,0.284
				c-0.418,0-0.721-0.138-0.902-0.408c-0.181-0.269-0.202-0.612-0.063-1.03c0.228-0.681,0.692-1.31,1.39-1.89
				c0.694-0.577,1.334-0.866,1.92-0.866c0.288,0,0.494,0.079,0.621,0.237c0.13,0.159,0.149,0.363,0.065,0.618
				c-0.029,0.089-0.071,0.156-0.118,0.201c-0.05,0.046-0.127,0.088-0.236,0.135l-0.651,0.263c-0.079,0.033-0.134,0.049-0.167,0.049
				c-0.045,0-0.056-0.031-0.035-0.095c0.009-0.026,0.046-0.11,0.113-0.253c0.067-0.144,0.105-0.229,0.117-0.262
				c0.048-0.141,0.058-0.256,0.025-0.341c-0.031-0.089-0.095-0.13-0.197-0.13c-0.235,0-0.507,0.173-0.82,0.521
				c-0.311,0.344-0.543,0.737-0.688,1.18c-0.131,0.382-0.139,0.687-0.031,0.913c0.105,0.226,0.314,0.34,0.621,0.34
				c0.261,0,0.534-0.074,0.813-0.223c0.282-0.15,0.621-0.377,1.019-0.684L186.108,58.902z"/>
			<path fill="#FFFFFF" d="M191.279,58.902c-0.681,0.488-1.158,0.803-1.429,0.95c-0.271,0.148-0.51,0.224-0.713,0.224
				c-0.51,0-0.601-0.448-0.271-1.341c-0.476,0.457-0.888,0.793-1.233,1.012c-0.347,0.218-0.665,0.329-0.955,0.329
				c-0.282,0-0.481-0.134-0.594-0.398c-0.107-0.262-0.099-0.588,0.031-0.972c0.16-0.48,0.448-0.938,0.86-1.374
				c0.414-0.436,0.873-0.786,1.381-1.055c0.506-0.27,0.92-0.404,1.239-0.404c0.403,0,0.624,0.184,0.661,0.551l1.172-0.542h0.272
				l-0.9,1.408c-0.457,0.706-0.73,1.191-0.818,1.454c-0.093,0.275-0.041,0.413,0.156,0.413c0.126,0,0.288-0.066,0.482-0.199
				c0.196-0.131,0.48-0.335,0.846-0.606L191.279,58.902z M187.646,59.168c0.323,0,0.719-0.272,1.187-0.821
				c0.47-0.545,0.781-1.049,0.938-1.508c0.06-0.18,0.066-0.321,0.018-0.422c-0.046-0.101-0.137-0.15-0.272-0.15
				c-0.322,0-0.72,0.272-1.192,0.816c-0.472,0.545-0.785,1.045-0.939,1.503c-0.057,0.172-0.063,0.312-0.012,0.42
				C187.422,59.112,187.514,59.168,187.646,59.168z"/>
			<path fill="#FFFFFF" d="M196.038,58.902c-1.006,0.781-1.777,1.174-2.309,1.174c-0.217,0-0.365-0.077-0.448-0.227
				c-0.083-0.15-0.081-0.353,0.006-0.605c0.116-0.344,0.433-0.865,0.952-1.57c0.279-0.379,0.438-0.617,0.471-0.721
				c0.035-0.102,0.012-0.153-0.068-0.153c-0.048,0-0.112,0.022-0.203,0.066c-0.082,0.045-0.183,0.108-0.3,0.188
				c-0.104,0.073-0.227,0.161-0.362,0.268c-0.117,0.092-0.244,0.192-0.383,0.308l-0.376,0.313c-0.169,0.144-0.294,0.296-0.377,0.456
				c-0.141,0.271-0.256,0.521-0.348,0.75c-0.068,0.17-0.15,0.397-0.244,0.687l-1.156,0.249c0.109-0.432,0.198-0.754,0.27-0.964
				c0.174-0.518,0.399-1.005,0.675-1.468c0.276-0.458,0.646-0.979,1.107-1.555l1.257-0.225c-0.471,0.661-0.81,1.185-1.016,1.566
				c0.727-0.588,1.282-0.992,1.67-1.22c0.389-0.225,0.702-0.338,0.944-0.338c0.163,0,0.278,0.063,0.349,0.185
				c0.068,0.124,0.071,0.277,0.008,0.465c-0.104,0.305-0.41,0.812-0.925,1.516c-0.354,0.483-0.555,0.798-0.604,0.941
				c-0.062,0.193-0.018,0.29,0.142,0.29c0.237,0,0.723-0.311,1.457-0.927L196.038,58.902z"/>
			<path fill="#FFFFFF" d="M199.659,58.902c-0.549,0.402-1.029,0.701-1.435,0.89c-0.407,0.188-0.798,0.284-1.172,0.284
				c-0.423,0-0.723-0.138-0.903-0.408c-0.183-0.269-0.204-0.612-0.065-1.03c0.23-0.681,0.694-1.31,1.39-1.89
				c0.697-0.577,1.337-0.866,1.922-0.866c0.286,0,0.496,0.079,0.621,0.237c0.127,0.159,0.149,0.363,0.065,0.618
				c-0.03,0.089-0.07,0.156-0.119,0.201c-0.05,0.046-0.128,0.088-0.235,0.135l-0.651,0.263c-0.079,0.033-0.135,0.049-0.167,0.049
				c-0.044,0-0.058-0.031-0.035-0.095c0.009-0.026,0.047-0.11,0.115-0.253c0.066-0.144,0.105-0.229,0.114-0.262
				c0.049-0.141,0.056-0.256,0.026-0.341c-0.031-0.089-0.096-0.13-0.195-0.13c-0.236,0-0.51,0.173-0.821,0.521
				c-0.312,0.344-0.541,0.737-0.691,1.18c-0.127,0.382-0.138,0.687-0.029,0.913c0.106,0.226,0.313,0.34,0.62,0.34
				c0.263,0,0.534-0.074,0.815-0.223c0.28-0.15,0.619-0.377,1.017-0.684L199.659,58.902z"/>
			<path fill="#FFFFFF" d="M203.289,58.902c-0.544,0.399-1.009,0.695-1.4,0.888c-0.39,0.19-0.781,0.286-1.176,0.286
				c-0.439,0-0.747-0.14-0.923-0.418s-0.188-0.646-0.036-1.102c0.23-0.679,0.674-1.293,1.333-1.841
				c0.658-0.55,1.277-0.824,1.856-0.824c0.3,0,0.516,0.077,0.643,0.23c0.13,0.155,0.152,0.355,0.067,0.604
				c-0.222,0.664-1.112,1.2-2.671,1.614c-0.083,0.626,0.151,0.938,0.696,0.938c0.212,0,0.436-0.057,0.668-0.172
				c0.231-0.115,0.609-0.365,1.13-0.755L203.289,58.902z M201.052,58.015c0.904-0.231,1.461-0.658,1.671-1.277
				c0.103-0.31,0.04-0.46-0.186-0.46c-0.213,0-0.471,0.157-0.771,0.48C201.463,57.081,201.226,57.499,201.052,58.015z"/>
		</g>
	</g>
</g>
</svg>
