<?xml version="1.0" encoding="utf-8"?>
<!-- Generator: Adobe Illustrator 15.1.0, SVG Export Plug-In . SVG Version: 6.00 Build 0)  -->
<!DOCTYPE svg PUBLIC "-//W3C//DTD SVG 1.1//EN" "http://www.w3.org/Graphics/SVG/1.1/DTD/svg11.dtd">
<svg version="1.1" id="Layer_1" xmlns="http://www.w3.org/2000/svg" xmlns:xlink="http://www.w3.org/1999/xlink" x="0px" y="0px"
	 width="100px" height="69.26px" viewBox="0 0 100 69.26" enable-background="new 0 0 100 69.26" xml:space="preserve">
<g>
	<rect fill="#E33834" width="100" height="69.26"/>
	<g>
		<path fill="#FFFFFF" d="M16.726,41.369c0,1.702,1.194,3.104,3.015,3.104c1.759,0,3.14-1.002,3.14-3.104v-6.704
			c0-3.202,0.817-4.404,3.517-4.404c2.764,0,3.705,1,3.705,4.505v6.803c0,6.905-7.222,8.058-10.362,8.058
			c-3.58,0-6.845-1.102-8.667-3.354c-1.381-1.702-1.57-2.552-1.57-8.958v-2.65c0-2.904,0.754-4.453,3.266-4.453
			c2.953,0,3.956,1.049,3.956,4.453V41.369z"/>
		<path fill="#FFFFFF" d="M41.157,34.816c1.442,2.2,2.825,3.452,3.516,3.452c0.503,0,1.069-0.701,1.069-2.054
			c0-0.449-0.125-2.951,0.438-3.901c0.502-0.901,1.319-1.352,2.513-1.352c2.387,0,3.079,1.001,3.079,4.604v10.008
			c0,2.352-1.132,3.553-3.392,3.553c-1.821,0-2.89-0.549-3.769-1.251c-0.376-0.302-1.947-2.502-2.951-3.802
			c-0.944-1.201-1.947-2.303-2.512-2.303c-0.818,0-1.194,0.751-1.194,2.15c0,3.003-0.315,3.304-0.565,3.903
			c-0.439,0.801-1.255,1.203-2.387,1.203c-2.888,0-3.078-1.654-3.078-4.555V34.366c0-2.402,0.879-3.553,3.456-3.553
			c1.633,0,2.511,0.35,3.392,1.05C39.273,32.264,40.278,33.465,41.157,34.816z"/>
		<path fill="#FFFFFF" d="M81.539,35.191c-1.572,1.351-2.324,1.9-2.324,2.901c0,0.452,0.128,0.802,0.377,1.151
			c5.215,6.955,5.528,7.157,5.528,8.206c0,1.352-1.383,2.003-2.953,2.003c-2.763,0-4.083-0.7-5.149-2.103
			c-3.014-3.802-3.327-4.154-4.146-4.154c-1.256,0-2.01,1.101-2.01,2.805c0,2.501-1.57,3.452-3.895,3.452
			c-3.39,0-3.895-2.054-3.895-4.454l0.064-11.108c0-2.452,1.319-3.703,3.892-3.703c2.389,0,3.204,0.802,3.708,2.403
			c0.252,0.9,0.503,1.551,1.256,1.551c1.257,0,3.138-2.452,4.396-3.052c1.318-0.65,2.386-0.951,3.393-0.951
			c1.254,0,4.521-0.15,4.521,1.601C84.303,32.639,84.051,32.989,81.539,35.191z"/>
		<g>
			<path fill="#FFFFFF" d="M89.614,30.15c0.477,0,0.941,0.123,1.396,0.367c0.453,0.247,0.809,0.596,1.062,1.054
				c0.255,0.458,0.381,0.935,0.381,1.43c0,0.492-0.125,0.961-0.375,1.415c-0.249,0.454-0.6,0.806-1.051,1.054
				c-0.449,0.25-0.921,0.376-1.413,0.376s-0.962-0.126-1.411-0.376c-0.452-0.248-0.803-0.6-1.054-1.054
				c-0.252-0.454-0.377-0.923-0.377-1.415c0-0.495,0.127-0.972,0.381-1.43c0.255-0.458,0.611-0.807,1.065-1.054
				C88.673,30.273,89.139,30.15,89.614,30.15z M89.614,30.619c-0.399,0-0.789,0.102-1.167,0.307c-0.378,0.207-0.673,0.5-0.887,0.881
				c-0.214,0.383-0.32,0.781-0.32,1.193c0,0.412,0.106,0.804,0.315,1.181c0.211,0.376,0.503,0.67,0.879,0.88
				c0.377,0.211,0.771,0.317,1.18,0.317c0.411,0,0.803-0.105,1.18-0.317c0.378-0.21,0.669-0.504,0.877-0.88
				c0.209-0.376,0.313-0.769,0.313-1.181c0-0.413-0.106-0.811-0.317-1.193c-0.214-0.381-0.509-0.674-0.889-0.881
				C90.399,30.721,90.012,30.619,89.614,30.619z M88.363,34.582V31.5h1.051c0.359,0,0.619,0.028,0.779,0.085
				c0.161,0.057,0.29,0.156,0.384,0.297c0.098,0.142,0.145,0.293,0.145,0.452c0,0.226-0.079,0.421-0.236,0.589
				c-0.158,0.167-0.367,0.261-0.627,0.28c0.105,0.047,0.192,0.101,0.258,0.164c0.123,0.121,0.272,0.325,0.448,0.611l0.369,0.603
				h-0.6l-0.271-0.485c-0.218-0.378-0.387-0.616-0.508-0.714c-0.09-0.073-0.221-0.109-0.394-0.107h-0.288v1.307H88.363z
				 M88.873,32.849h0.598c0.285,0,0.479-0.043,0.584-0.13c0.103-0.086,0.155-0.201,0.155-0.344c0-0.091-0.025-0.174-0.075-0.248
				c-0.05-0.073-0.121-0.126-0.209-0.162s-0.252-0.054-0.494-0.054h-0.559V32.849z"/>
		</g>
		<path fill="#FFFFFF" d="M62.298,25.735c0,0-0.111,2.166-5.178,2.166s-5.112,1.236-5.112,1.236V25.01c0,0-0.083-1.234,5.104-1.234
			c5.19,0,5.186-2.168,5.186-2.168V25.735z"/>
		<path fill="#FFFFFF" d="M62.218,14.112c0,0,0.213-4.16,9.942-4.16c9.728,0,9.818-2.374,9.818-2.374v7.926
			c0,0,0.159,2.37-9.805,2.37c-9.961,0-9.956,4.166-9.956,4.166V14.112z"/>
		<path fill="#FFFFFF" d="M56.918,30.247c-2.322,0-3.452,1.551-3.452,3.751l-0.063,11.109c0,2.502,0.503,4.453,3.896,4.453
			c2.572,0,3.892-1.249,3.892-3.701V35C61.189,31.298,60.06,30.247,56.918,30.247z M60.929,43.365c0,0-0.077,2.166-3.613,2.166
			c-3.533,0-3.568,1.237-3.568,1.237V42.64c0,0-0.056-1.233,3.563-1.233c3.62,0,3.618-2.171,3.618-2.171V43.365z M60.929,37.443
			c0,0-0.077,2.165-3.613,2.165c-3.533,0-3.568,1.235-3.568,1.235v-4.127c0,0-0.056-1.232,3.563-1.232
			c3.62,0,3.618-2.172,3.618-2.172V37.443z"/>
		<g>
			<path fill="#FFFFFF" d="M14.531,58.908c-1.026,0.784-2.082,1.176-3.163,1.176c-0.777,0-1.331-0.24-1.664-0.723
				c-0.334-0.482-0.374-1.101-0.119-1.856c0.252-0.751,0.672-1.47,1.258-2.146c0.587-0.681,1.239-1.223,1.955-1.629
				c0.716-0.408,1.354-0.61,1.913-0.61c0.468,0,0.802,0.14,1.005,0.418c0.201,0.278,0.226,0.642,0.079,1.085
				c-0.196,0.581-0.543,1.08-1.042,1.506c-0.5,0.424-0.988,0.636-1.467,0.636c-0.251,0-0.436-0.063-0.554-0.191
				c-0.119-0.128-0.144-0.292-0.076-0.494c0.059-0.173,0.182-0.333,0.37-0.481c0.039,0.189,0.149,0.284,0.331,0.284
				c0.258,0,0.552-0.157,0.881-0.479s0.556-0.673,0.685-1.051c0.089-0.269,0.098-0.479,0.026-0.637
				c-0.073-0.156-0.21-0.234-0.418-0.234c-0.3,0-0.683,0.185-1.147,0.557c-0.466,0.37-0.911,0.847-1.334,1.432
				c-0.424,0.581-0.723,1.135-0.9,1.661c-0.225,0.669-0.218,1.218,0.02,1.647c0.238,0.429,0.652,0.645,1.243,0.645
				c0.375,0,0.743-0.086,1.1-0.258c0.357-0.175,0.761-0.442,1.206-0.811L14.531,58.908z"/>
			<path fill="#FFFFFF" d="M19.703,58.902c-0.68,0.488-1.156,0.803-1.429,0.95c-0.271,0.148-0.51,0.224-0.712,0.224
				c-0.511,0-0.602-0.448-0.272-1.341c-0.477,0.457-0.888,0.793-1.234,1.012c-0.347,0.218-0.665,0.329-0.955,0.329
				c-0.286,0-0.481-0.134-0.591-0.398c-0.109-0.262-0.1-0.588,0.028-0.972c0.162-0.48,0.447-0.938,0.861-1.374
				c0.413-0.436,0.872-0.786,1.38-1.055c0.505-0.27,0.919-0.404,1.239-0.404c0.402,0,0.625,0.184,0.662,0.551l1.171-0.542h0.272
				l-0.901,1.408c-0.456,0.706-0.731,1.191-0.817,1.454c-0.095,0.275-0.041,0.413,0.156,0.413c0.125,0,0.286-0.066,0.482-0.199
				c0.197-0.131,0.476-0.335,0.843-0.606L19.703,58.902z M16.069,59.168c0.322,0,0.719-0.272,1.188-0.821
				c0.467-0.545,0.781-1.049,0.937-1.508c0.059-0.18,0.064-0.321,0.019-0.422s-0.137-0.15-0.272-0.15
				c-0.325,0-0.722,0.272-1.194,0.816c-0.472,0.545-0.785,1.045-0.938,1.503c-0.059,0.172-0.063,0.312-0.013,0.42
				C15.845,59.112,15.937,59.168,16.069,59.168z"/>
			<path fill="#FFFFFF" d="M22.914,58.902c-0.573,0.399-1.058,0.695-1.452,0.888c-0.397,0.19-0.743,0.286-1.045,0.286
				c-0.345,0-0.578-0.136-0.701-0.4c-0.122-0.266-0.106-0.623,0.042-1.071c0.227-0.671,0.646-1.479,1.255-2.42
				c0.609-0.941,1.259-1.811,1.944-2.604l1.384-0.452c0.042-0.01,0.073-0.019,0.092-0.019c0.093,0,0.148,0.068,0.163,0.205
				c0.012,0.135-0.02,0.318-0.096,0.55c-0.22,0.652-0.583,1.283-1.093,1.896c-0.509,0.612-1.204,1.265-2.083,1.96
				c-0.139,0.334-0.228,0.561-0.27,0.688c-0.095,0.276-0.118,0.499-0.068,0.663c0.048,0.161,0.158,0.243,0.329,0.243
				c0.175,0,0.381-0.063,0.621-0.187c0.238-0.124,0.625-0.385,1.161-0.777L22.914,58.902z M21.69,57.025
				c0.562-0.453,1.065-0.959,1.508-1.521c0.444-0.562,0.735-1.043,0.869-1.446c0.041-0.121,0.056-0.215,0.044-0.287
				c-0.011-0.072-0.045-0.107-0.1-0.107c-0.121,0-0.393,0.295-0.819,0.886C22.767,55.138,22.266,55.964,21.69,57.025z"/>
			<path fill="#FFFFFF" d="M25.296,58.902c-1.019,0.789-1.718,1.182-2.092,1.182c-0.206,0-0.347-0.104-0.417-0.313
				c-0.071-0.211-0.054-0.475,0.053-0.791c0.229-0.683,0.779-1.626,1.647-2.833l1.317-0.255h0.059l-0.989,1.504
				c-0.41,0.619-0.658,1.064-0.749,1.33c-0.035,0.104-0.041,0.192-0.016,0.257c0.025,0.065,0.072,0.098,0.143,0.098
				c0.126,0,0.268-0.045,0.427-0.136c0.158-0.093,0.427-0.29,0.803-0.593L25.296,58.902z M26.842,54.014
				c-0.257,0.769-0.672,1.151-1.244,1.151c-0.278,0-0.486-0.08-0.628-0.249c0.282-0.281,0.534-0.598,0.757-0.949
				c0.203,0.154,0.38,0.234,0.535,0.234C26.436,54.201,26.629,54.139,26.842,54.014z"/>
			<path fill="#FFFFFF" d="M30.469,58.902c-0.619,0.459-1.078,0.768-1.375,0.93c-0.3,0.161-0.542,0.244-0.729,0.244
				c-0.229,0-0.373-0.113-0.431-0.332c-0.061-0.22-0.021-0.545,0.118-0.971c-0.407,0.426-0.805,0.751-1.189,0.971
				c-0.388,0.219-0.706,0.332-0.956,0.332c-0.275,0-0.474-0.13-0.597-0.389c-0.125-0.256-0.128-0.559-0.01-0.904
				c0.239-0.714,0.724-1.377,1.455-1.988c0.729-0.607,1.396-0.913,2-0.913c0.165,0,0.292,0.024,0.369,0.071
				c0.081,0.049,0.156,0.13,0.231,0.246l1.658-2.872c0.611-0.132,1.012-0.198,1.21-0.198c0.064,0,0.089,0.026,0.071,0.077
				c-0.01,0.035-0.203,0.367-0.575,0.995c-1.491,2.51-2.322,4.024-2.495,4.543c-0.042,0.122-0.048,0.219-0.023,0.293
				c0.027,0.074,0.082,0.111,0.166,0.111c0.207,0,0.637-0.266,1.289-0.797L30.469,58.902z M26.881,59.157
				c0.318,0,0.703-0.266,1.156-0.798c0.452-0.532,0.757-1.028,0.912-1.493c0.063-0.188,0.072-0.339,0.023-0.451
				c-0.046-0.11-0.141-0.169-0.279-0.169c-0.299,0-0.686,0.276-1.153,0.835c-0.467,0.554-0.776,1.057-0.926,1.505
				c-0.06,0.176-0.065,0.314-0.016,0.419C26.646,59.106,26.741,59.157,26.881,59.157z"/>
			<path fill="#FFFFFF" d="M35.647,58.902c-0.68,0.488-1.156,0.803-1.428,0.95c-0.273,0.148-0.512,0.224-0.714,0.224
				c-0.511,0-0.6-0.448-0.272-1.341c-0.477,0.457-0.886,0.793-1.233,1.012c-0.346,0.218-0.665,0.329-0.955,0.329
				c-0.283,0-0.481-0.134-0.591-0.398c-0.109-0.262-0.101-0.588,0.03-0.972c0.161-0.48,0.447-0.938,0.861-1.374
				c0.412-0.436,0.872-0.786,1.379-1.055c0.506-0.27,0.919-0.404,1.24-0.404c0.403,0,0.624,0.184,0.662,0.551l1.171-0.542h0.272
				l-0.9,1.408c-0.456,0.706-0.729,1.191-0.818,1.454c-0.093,0.275-0.041,0.413,0.156,0.413c0.126,0,0.286-0.066,0.484-0.199
				c0.195-0.131,0.477-0.335,0.843-0.606L35.647,58.902z M32.014,59.168c0.322,0,0.717-0.272,1.187-0.821
				c0.47-0.545,0.781-1.049,0.936-1.508c0.06-0.18,0.068-0.321,0.021-0.422c-0.046-0.101-0.139-0.15-0.274-0.15
				c-0.323,0-0.72,0.272-1.191,0.816c-0.473,0.545-0.785,1.045-0.939,1.503c-0.058,0.172-0.064,0.312-0.013,0.42
				C31.789,59.112,31.879,59.168,32.014,59.168z"/>
			<path fill="#FFFFFF" d="M40.814,58.902c-0.62,0.459-1.078,0.768-1.375,0.93c-0.299,0.161-0.541,0.244-0.729,0.244
				c-0.229,0-0.372-0.113-0.432-0.332c-0.06-0.22-0.02-0.545,0.121-0.971c-0.409,0.426-0.805,0.751-1.19,0.971
				c-0.387,0.219-0.705,0.332-0.957,0.332c-0.274,0-0.475-0.13-0.597-0.389c-0.125-0.256-0.126-0.559-0.011-0.904
				c0.241-0.714,0.727-1.377,1.455-1.988c0.731-0.607,1.396-0.913,2-0.913c0.169,0,0.292,0.024,0.372,0.071
				c0.079,0.049,0.157,0.13,0.229,0.246l1.658-2.872c0.609-0.132,1.012-0.198,1.209-0.198c0.067,0,0.088,0.026,0.071,0.077
				c-0.011,0.035-0.204,0.367-0.576,0.995c-1.488,2.51-2.32,4.024-2.495,4.543c-0.042,0.122-0.047,0.219-0.021,0.293
				c0.028,0.074,0.082,0.111,0.167,0.111c0.206,0,0.635-0.266,1.288-0.797L40.814,58.902z M37.228,59.157
				c0.316,0,0.701-0.266,1.154-0.798c0.454-0.532,0.757-1.028,0.915-1.493c0.063-0.188,0.071-0.339,0.024-0.451
				c-0.05-0.11-0.143-0.169-0.281-0.169c-0.3,0-0.684,0.276-1.15,0.835c-0.47,0.554-0.779,1.057-0.929,1.505
				c-0.061,0.176-0.065,0.314-0.017,0.419C36.99,59.106,37.085,59.157,37.228,59.157z"/>
			<path fill="#FFFFFF" d="M48.462,58.902c-0.68,0.488-1.155,0.803-1.428,0.95c-0.273,0.148-0.512,0.224-0.714,0.224
				c-0.511,0-0.602-0.448-0.271-1.341c-0.477,0.457-0.889,0.793-1.235,1.012c-0.346,0.218-0.665,0.329-0.956,0.329
				c-0.282,0-0.48-0.134-0.589-0.398c-0.11-0.262-0.102-0.588,0.029-0.972c0.162-0.48,0.448-0.938,0.86-1.374
				c0.414-0.436,0.873-0.786,1.381-1.055c0.506-0.27,0.92-0.404,1.24-0.404c0.403,0,0.625,0.184,0.662,0.551l1.17-0.542h0.274
				l-0.901,1.408c-0.459,0.706-0.732,1.191-0.818,1.454c-0.092,0.275-0.041,0.413,0.156,0.413c0.125,0,0.286-0.066,0.483-0.199
				c0.195-0.131,0.477-0.335,0.843-0.606L48.462,58.902z M44.829,59.168c0.322,0,0.719-0.272,1.188-0.821
				c0.468-0.545,0.78-1.049,0.935-1.508c0.06-0.18,0.067-0.321,0.02-0.422c-0.046-0.101-0.137-0.15-0.273-0.15
				c-0.322,0-0.721,0.272-1.193,0.816c-0.471,0.545-0.783,1.045-0.937,1.503c-0.06,0.172-0.064,0.312-0.014,0.42
				C44.604,59.112,44.694,59.168,44.829,59.168z"/>
			<path fill="#FFFFFF" d="M53.736,58.902c-0.541,0.399-0.992,0.695-1.354,0.888c-0.36,0.19-0.676,0.286-0.943,0.286
				c-0.278,0-0.464-0.118-0.559-0.35c-0.095-0.232-0.079-0.537,0.048-0.915c0.112-0.332,0.343-0.771,0.691-1.317l0.45-0.729
				l-0.378,0.021l0.407-0.754l0.468-0.021l0.96-1.499l1.382-0.265l-1.063,1.674l0.696-0.04l-0.409,0.74l-0.771,0.056l-0.684,1.078
				c-0.238,0.372-0.395,0.67-0.468,0.892c-0.051,0.152-0.055,0.271-0.01,0.369c0.044,0.095,0.127,0.141,0.248,0.141
				c0.162,0,0.343-0.051,0.539-0.155c0.197-0.106,0.509-0.322,0.933-0.65L53.736,58.902z"/>
			<path fill="#FFFFFF" d="M58.904,58.902c-0.562,0.399-1.019,0.695-1.369,0.888c-0.35,0.19-0.641,0.286-0.871,0.286
				c-0.253,0-0.417-0.103-0.485-0.305c-0.071-0.2-0.047-0.476,0.068-0.82c-0.483,0.387-0.898,0.672-1.24,0.856
				c-0.343,0.185-0.649,0.276-0.917,0.276c-0.245,0-0.408-0.101-0.488-0.302c-0.082-0.203-0.064-0.478,0.054-0.82
				c0.224-0.668,0.762-1.605,1.623-2.815l1.378-0.256c-1.047,1.534-1.646,2.52-1.792,2.956c-0.102,0.306-0.038,0.458,0.194,0.458
				c0.169,0,0.421-0.133,0.761-0.404c0.34-0.27,0.573-0.507,0.704-0.709l1.322-2.045l1.406-0.265
				c-0.629,0.966-1.065,1.641-1.311,2.031c-0.244,0.392-0.393,0.662-0.444,0.821c-0.102,0.302-0.05,0.453,0.157,0.453
				c0.167,0,0.468-0.153,0.901-0.458l0.532-0.378L58.904,58.902z"/>
			<path fill="#FFFFFF" d="M68.105,58.908c-1.007,0.784-1.82,1.176-2.44,1.176c-0.342,0-0.574-0.121-0.694-0.359
				c-0.118-0.24-0.113-0.584,0.014-1.029c-0.549,0.473-1.012,0.822-1.392,1.049c-0.378,0.227-0.737,0.34-1.081,0.34
				c-0.438,0-0.729-0.188-0.867-0.563c-0.142-0.377-0.106-0.879,0.105-1.506c0.252-0.751,0.687-1.521,1.303-2.318
				c0.614-0.796,1.343-1.423,2.184-1.885c0.84-0.461,1.745-0.691,2.722-0.691c0.729,0,1.356,0.097,1.883,0.293l-0.107,0.317
				c-0.669,0.559-1.333,1.337-1.996,2.339c-0.659,1.002-1.077,1.765-1.255,2.29c-0.087,0.256-0.1,0.455-0.042,0.596
				c0.057,0.141,0.179,0.213,0.366,0.213c0.336,0,0.83-0.272,1.484-0.813L68.105,58.908z M68.436,53.73
				c-0.243-0.159-0.536-0.241-0.879-0.241c-0.539,0-1.099,0.225-1.684,0.671c-0.582,0.446-1.121,1.038-1.619,1.775
				c-0.497,0.735-0.839,1.375-1.021,1.916c-0.122,0.36-0.146,0.656-0.084,0.883c0.064,0.224,0.207,0.338,0.426,0.338
				c0.382,0,0.935-0.344,1.66-1.032C66.045,56.233,67.11,54.796,68.436,53.73z"/>
			<path fill="#FFFFFF" d="M71.309,58.902c-0.576,0.399-1.06,0.695-1.453,0.888c-0.396,0.19-0.746,0.286-1.045,0.286
				c-0.345,0-0.577-0.136-0.702-0.4c-0.121-0.266-0.106-0.623,0.043-1.071c0.227-0.671,0.646-1.479,1.255-2.42
				c0.612-0.941,1.26-1.811,1.945-2.604l1.384-0.452c0.043-0.01,0.073-0.019,0.093-0.019c0.092,0,0.148,0.068,0.161,0.205
				c0.014,0.135-0.019,0.318-0.095,0.55c-0.221,0.652-0.583,1.283-1.094,1.896c-0.507,0.612-1.202,1.265-2.082,1.96
				c-0.139,0.334-0.228,0.561-0.27,0.688c-0.095,0.276-0.118,0.499-0.068,0.663c0.049,0.161,0.158,0.243,0.33,0.243
				c0.174,0,0.382-0.063,0.619-0.187c0.239-0.124,0.628-0.385,1.164-0.777L71.309,58.902z M70.084,57.025
				c0.563-0.453,1.065-0.959,1.51-1.521c0.443-0.562,0.732-1.043,0.868-1.446c0.039-0.121,0.055-0.215,0.044-0.287
				c-0.013-0.072-0.045-0.107-0.102-0.107c-0.119,0-0.392,0.295-0.816,0.886C71.161,55.138,70.659,55.964,70.084,57.025z"/>
			<path fill="#FFFFFF" d="M74.941,58.902c-0.549,0.402-1.029,0.701-1.437,0.89c-0.405,0.188-0.799,0.284-1.173,0.284
				c-0.418,0-0.721-0.138-0.902-0.408c-0.181-0.269-0.202-0.612-0.063-1.03c0.228-0.681,0.692-1.31,1.39-1.89
				c0.694-0.577,1.334-0.866,1.92-0.866c0.288,0,0.494,0.079,0.621,0.237c0.13,0.159,0.149,0.363,0.065,0.618
				c-0.029,0.089-0.071,0.156-0.118,0.201c-0.05,0.046-0.127,0.088-0.236,0.135l-0.651,0.263c-0.079,0.033-0.134,0.049-0.167,0.049
				c-0.045,0-0.056-0.031-0.035-0.095c0.009-0.026,0.046-0.11,0.113-0.253c0.067-0.144,0.105-0.229,0.117-0.262
				c0.048-0.141,0.058-0.256,0.025-0.341c-0.031-0.089-0.095-0.13-0.197-0.13c-0.235,0-0.507,0.173-0.82,0.521
				c-0.311,0.344-0.543,0.737-0.688,1.18c-0.131,0.382-0.139,0.687-0.031,0.913c0.105,0.226,0.314,0.34,0.621,0.34
				c0.261,0,0.534-0.074,0.813-0.223c0.282-0.15,0.621-0.377,1.019-0.684L74.941,58.902z"/>
			<path fill="#FFFFFF" d="M80.112,58.902c-0.681,0.488-1.158,0.803-1.429,0.95c-0.271,0.148-0.51,0.224-0.713,0.224
				c-0.51,0-0.601-0.448-0.271-1.341c-0.476,0.457-0.888,0.793-1.233,1.012c-0.347,0.218-0.665,0.329-0.955,0.329
				c-0.282,0-0.481-0.134-0.594-0.398c-0.107-0.262-0.099-0.588,0.031-0.972c0.16-0.48,0.448-0.938,0.86-1.374
				c0.414-0.436,0.873-0.786,1.381-1.055c0.506-0.27,0.92-0.404,1.239-0.404c0.403,0,0.624,0.184,0.661,0.551l1.172-0.542h0.272
				l-0.9,1.408c-0.457,0.706-0.73,1.191-0.818,1.454c-0.093,0.275-0.041,0.413,0.156,0.413c0.126,0,0.288-0.066,0.482-0.199
				c0.196-0.131,0.48-0.335,0.846-0.606L80.112,58.902z M76.479,59.168c0.323,0,0.719-0.272,1.187-0.821
				c0.47-0.545,0.781-1.049,0.938-1.508c0.06-0.18,0.066-0.321,0.018-0.422c-0.046-0.101-0.137-0.15-0.272-0.15
				c-0.322,0-0.72,0.272-1.192,0.816c-0.472,0.545-0.785,1.045-0.939,1.503c-0.057,0.172-0.063,0.312-0.012,0.42
				C76.255,59.112,76.347,59.168,76.479,59.168z"/>
			<path fill="#FFFFFF" d="M84.871,58.902c-1.006,0.781-1.777,1.174-2.309,1.174c-0.217,0-0.365-0.077-0.448-0.227
				c-0.083-0.15-0.081-0.353,0.006-0.605c0.116-0.344,0.433-0.865,0.952-1.57c0.279-0.379,0.438-0.617,0.471-0.721
				c0.035-0.102,0.012-0.153-0.068-0.153c-0.048,0-0.112,0.022-0.203,0.066c-0.082,0.045-0.183,0.108-0.3,0.188
				c-0.104,0.073-0.227,0.161-0.362,0.268c-0.117,0.092-0.244,0.192-0.383,0.308l-0.376,0.313c-0.169,0.144-0.294,0.296-0.377,0.456
				c-0.141,0.271-0.256,0.521-0.348,0.75c-0.068,0.17-0.15,0.397-0.244,0.687l-1.156,0.249c0.109-0.432,0.198-0.754,0.27-0.964
				c0.174-0.518,0.399-1.005,0.675-1.468c0.276-0.458,0.646-0.979,1.107-1.555l1.257-0.225c-0.471,0.661-0.81,1.185-1.016,1.566
				c0.727-0.588,1.282-0.992,1.67-1.22c0.389-0.225,0.702-0.338,0.944-0.338c0.163,0,0.278,0.063,0.349,0.185
				c0.068,0.124,0.071,0.277,0.008,0.465c-0.104,0.305-0.41,0.812-0.925,1.516c-0.354,0.483-0.555,0.798-0.604,0.941
				c-0.062,0.193-0.018,0.29,0.142,0.29c0.237,0,0.723-0.311,1.457-0.927L84.871,58.902z"/>
			<path fill="#FFFFFF" d="M88.492,58.902c-0.549,0.402-1.029,0.701-1.435,0.89c-0.407,0.188-0.798,0.284-1.172,0.284
				c-0.423,0-0.723-0.138-0.903-0.408c-0.183-0.269-0.204-0.612-0.065-1.03c0.23-0.681,0.694-1.31,1.39-1.89
				c0.697-0.577,1.337-0.866,1.922-0.866c0.286,0,0.496,0.079,0.621,0.237c0.127,0.159,0.149,0.363,0.065,0.618
				c-0.03,0.089-0.07,0.156-0.119,0.201c-0.05,0.046-0.128,0.088-0.235,0.135l-0.651,0.263c-0.079,0.033-0.135,0.049-0.167,0.049
				c-0.044,0-0.058-0.031-0.035-0.095c0.009-0.026,0.047-0.11,0.115-0.253c0.066-0.144,0.105-0.229,0.114-0.262
				c0.049-0.141,0.056-0.256,0.026-0.341c-0.031-0.089-0.096-0.13-0.195-0.13c-0.236,0-0.51,0.173-0.821,0.521
				c-0.312,0.344-0.541,0.737-0.691,1.18c-0.127,0.382-0.138,0.687-0.029,0.913c0.106,0.226,0.313,0.34,0.62,0.34
				c0.263,0,0.534-0.074,0.815-0.223c0.28-0.15,0.619-0.377,1.017-0.684L88.492,58.902z"/>
			<path fill="#FFFFFF" d="M92.122,58.902c-0.544,0.399-1.009,0.695-1.4,0.888c-0.39,0.19-0.781,0.286-1.176,0.286
				c-0.439,0-0.747-0.14-0.923-0.418s-0.188-0.646-0.036-1.102c0.23-0.679,0.674-1.293,1.333-1.841
				c0.658-0.55,1.277-0.824,1.856-0.824c0.3,0,0.516,0.077,0.643,0.23c0.13,0.155,0.152,0.355,0.067,0.604
				c-0.222,0.664-1.112,1.2-2.671,1.614c-0.083,0.626,0.151,0.938,0.696,0.938c0.212,0,0.436-0.057,0.668-0.172
				c0.231-0.115,0.609-0.365,1.13-0.755L92.122,58.902z M89.885,58.015c0.904-0.231,1.461-0.658,1.671-1.277
				c0.103-0.31,0.04-0.46-0.186-0.46c-0.213,0-0.471,0.157-0.771,0.48C90.296,57.081,90.059,57.499,89.885,58.015z"/>
		</g>
	</g>
</g>
</svg>
